<svg width="79" height="79" viewBox="0 0 79 79" fill="none" xmlns="http://www.w3.org/2000/svg">
    <g filter="url(#oalpgvju0a)">
        <path d="M17.249 39.937c0-12.539 10.18-22.699 22.746-22.699 6.9 0 13.078 3.067 17.256 7.912a2.62 2.62 0 0 0 3.98-3.405A27.917 27.917 0 0 0 39.995 12C24.532 12 12 24.506 12 39.937v4.366c0 1.451 1.17 2.619 2.624 2.619a2.616 2.616 0 0 0 2.625-2.62v-4.365zm50.139-5.773a2.612 2.612 0 0 0-3.106-2.019c-1.41.306-2.33 1.692-2.023 3.1.317 1.517.492 3.088.492 4.703v4.365c0 1.452 1.17 2.62 2.625 2.62A2.616 2.616 0 0 0 68 44.313v-4.376c0-1.975-.208-3.906-.601-5.773h-.011zM39.994 20.73c-2.077 0-4.09.328-5.96.939-1.661.546-2.044 2.586-.907 3.918.776.905 2.056 1.178 3.215.862 1.16-.317 2.384-.48 3.653-.48 7.73 0 13.997 6.253 13.997 13.968v2.718c0 2.75-.164 5.489-.481 8.217-.186 1.594 1.028 3.034 2.646 3.034 1.29 0 2.395-.938 2.548-2.215a75.3 75.3 0 0 0 .547-9.025v-2.729c0-10.607-8.617-19.207-19.247-19.207h-.01zM28.48 28.228c-.995-1.157-2.767-1.244-3.707-.044a19.052 19.052 0 0 0-4.025 11.753v2.718c0 2.64-.284 5.282-.853 7.846-.372 1.703.864 3.405 2.614 3.405 1.148 0 2.176-.764 2.427-1.888.7-3.066 1.061-6.199 1.061-9.363v-2.718c0-2.968.93-5.718 2.505-7.977.787-1.135.874-2.685-.022-3.732zm11.515 1.233c-5.796 0-10.498 4.693-10.498 10.476v2.718c0 3.917-.503 7.803-1.51 11.578-.415 1.561.733 3.165 2.352 3.165a2.296 2.296 0 0 0 2.23-1.68 50.131 50.131 0 0 0 1.74-13.063v-2.718c0-3.132 2.547-5.674 5.686-5.674 3.138 0 5.686 2.542 5.686 5.674v2.718c0 3.961-.383 7.9-1.137 11.775-.296 1.517.842 2.968 2.384 2.968 1.115 0 2.077-.764 2.296-1.855a66.037 66.037 0 0 0 1.269-12.888v-2.718c0-5.783-4.703-10.476-10.498-10.476zm2.624 10.476c0-1.451-1.17-2.619-2.624-2.619a2.616 2.616 0 0 0-2.625 2.62v2.717c0 6.537-1.203 13.019-3.554 19.12l-.645 1.67a2.607 2.607 0 0 0 1.509 3.382c1.356.513 2.876-.153 3.39-1.506l.645-1.67a58.41 58.41 0 0 0 3.904-20.996v-2.718z" fill="#000"/>
    </g>
    <defs>
        <filter id="oalpgvju0a" x="8" y="12" width="64" height="63" filterUnits="userSpaceOnUse" color-interpolation-filters="sRGB">
            <feFlood flood-opacity="0" result="BackgroundImageFix"/>
            <feColorMatrix in="SourceAlpha" values="0 0 0 0 0 0 0 0 0 0 0 0 0 0 0 0 0 0 127 0" result="hardAlpha"/>
            <feOffset dy="4"/>
            <feGaussianBlur stdDeviation="2"/>
            <feComposite in2="hardAlpha" operator="out"/>
            <feColorMatrix values="0 0 0 0 0 0 0 0 0 0 0 0 0 0 0 0 0 0 0.25 0"/>
            <feBlend in2="BackgroundImageFix" result="effect1_dropShadow_128_339"/>
            <feBlend in="SourceGraphic" in2="effect1_dropShadow_128_339" result="shape"/>
        </filter>
    </defs>
</svg>
