<svg width="113" height="66" viewBox="0 0 113 66" fill="none" xmlns="http://www.w3.org/2000/svg">
    <g filter="url(#c4mmnrprya)">
        <path d="M9.091.798c-1.97.458-3.654 1.948-4.557 4.103L4 6.184V31.625l.534 1.26c1.006 2.339 2.71 3.737 5.153 4.15.8.137 12.195.183 30.077.16l28.783-.069.452-.504c.554-.619.595-1.72.082-2.36-.37-.46-.575-.46-29.44-.46-16.712 0-29.42-.091-29.872-.228-.924-.23-1.663-.78-2.258-1.697-.41-.618-.431-.916-.493-12.354-.041-6.463 0-12.078.062-12.49C7.244 6 8.476 4.532 9.4 4.235c1.026-.32 93.063-.32 94.069 0 .841.252 1.93 1.398 2.238 2.36.143.413.225 3.828.225 9.535v8.893l.473.482c.677.71 1.642.664 2.196-.115.431-.596.431-.733.37-9.901l-.062-9.306-.534-1.283c-.677-1.628-1.786-2.865-3.243-3.622l-1.15-.596L56.968.66C31.12.638 9.564.706 9.09.798z" fill="#000"/>
    </g>
    <g filter="url(#5wc4mv4nhb)">
        <path d="M21.328 10.012c-.78.298-1.006 1.077-1.006 3.621v2.27l-1.787-1.17c-1.93-1.283-2.73-1.42-3.408-.664-.451.48-.533 1.673-.143 2.2.123.16 1.006.802 1.97 1.421.945.596 1.725 1.146 1.725 1.215 0 .069-.76.573-1.663 1.146s-1.786 1.192-1.95 1.398c-.431.527-.431 1.719.02 2.269.596.733 1.478.573 3.388-.665l1.745-1.123.102 2.476c.124 2.819.39 3.438 1.54 3.438 1.253 0 1.417-.344 1.54-3.301l.103-2.636 1.745 1.123c2.053 1.33 2.833 1.444 3.47.55.841-1.191.348-2.108-1.787-3.438-2.114-1.306-2.094-1.168-.308-2.314 1.622-1.009 2.526-1.903 2.526-2.476 0-.688-.514-1.513-1.006-1.65-.863-.252-1.068-.16-2.895 1.031l-1.745 1.146-.103-2.544c-.062-1.42-.164-2.682-.246-2.842-.267-.435-1.253-.71-1.828-.481z" fill="#000"/>
    </g>
    <g filter="url(#7kpj31n3uc)">
        <path d="M41.057 10.035c-.8.435-1.026 1.214-1.026 3.53 0 1.168-.062 2.13-.144 2.13-.062 0-.862-.48-1.766-1.053-1.745-1.146-2.587-1.307-3.244-.642-.513.504-.513 1.788-.02 2.338.226.252 1.088.87 1.95 1.42.883.55 1.581 1.055 1.581 1.124 0 .091-.78.642-1.745 1.237-.965.62-1.848 1.307-1.95 1.536-.555 1.169.102 2.521 1.21 2.521.35 0 1.356-.481 2.341-1.123l1.745-1.123.083 2.476c.061 2.819.349 3.438 1.498 3.438 1.253 0 1.417-.344 1.54-3.301l.103-2.659 1.786 1.146c1.97 1.26 2.792 1.421 3.449.688.513-.573.534-1.696.04-2.246-.225-.252-1.087-.871-1.95-1.421-.882-.55-1.58-1.077-1.58-1.17 0-.09.595-.526 1.314-.985 1.93-1.215 2.587-1.88 2.587-2.681 0-.734-.616-1.559-1.17-1.605-.72-.069-1.007.069-2.567 1.078-.883.55-1.684 1.008-1.807 1.008s-.205-.917-.205-2.384c0-1.925-.062-2.475-.349-2.842-.493-.619-1.088-.78-1.704-.435z" fill="#000"/>
    </g>
    <g filter="url(#45557gw83d)">
        <path d="M60.971 9.897c-.903.367-1.026.734-1.026 3.324 0 1.558-.082 2.475-.206 2.475-.123 0-.944-.458-1.806-1.008-2.033-1.307-2.608-1.399-3.326-.597-.554.62-.534 1.697.062 2.293.246.275 1.129.893 1.95 1.398.8.504 1.478 1.008 1.478 1.1 0 .091-.78.665-1.745 1.26-.965.62-1.848 1.284-1.95 1.513-.555 1.169.102 2.521 1.231 2.521.37 0 1.294-.435 2.238-1.031.883-.573 1.704-1.032 1.827-1.032.165 0 .247.734.247 2.407 0 2.75.246 3.323 1.498 3.323 1.191 0 1.458-.573 1.54-3.438l.082-2.475 1.704 1.123c1.047.688 1.95 1.123 2.34 1.123 1.15 0 1.828-1.352 1.253-2.498-.102-.23-.985-.917-1.95-1.536-.965-.618-1.745-1.191-1.745-1.283 0-.092.698-.596 1.58-1.123.863-.527 1.725-1.146 1.95-1.398.473-.528.473-1.582 0-2.224-.574-.825-1.436-.687-3.284.528-.924.573-1.704 1.054-1.745 1.054-.062 0-.123-1.077-.185-2.407-.061-2.017-.143-2.475-.472-2.842-.472-.504-1.088-.733-1.54-.55z" fill="#000"/>
    </g>
    <g filter="url(#kp8e2p4a7e)">
        <path d="M87.558 11.822c-3.614.597-6.714 2.728-8.808 6.029-1.683 2.635-2.381 5.134-2.381 8.549 0 1.925-.041 2.108-.431 2.246-.719.252-2.074 1.765-2.464 2.75-.349.848-.39 1.742-.39 11.368v10.429l.534 1.192c.636 1.42 1.848 2.452 3.305 2.796.657.16 5.235.23 13.099.184 11.969-.07 12.112-.07 12.933-.574 1.068-.641 1.828-1.558 2.341-2.819.411-.985.431-1.467.431-11.001 0-5.982-.082-10.291-.205-10.795-.308-1.238-1.027-2.293-2.074-3.072l-.944-.687-.103-2.407c-.287-5.845-2.833-10.36-7.247-12.79-2.258-1.26-5.215-1.787-7.596-1.398zm4.62 3.805c2.32.71 4.926 3.094 6.014 5.478.678 1.513 1.17 3.828 1.17 5.547v1.42H79.449v-1.627c0-3.736 1.355-6.83 3.963-9.03 2.566-2.177 5.543-2.796 8.766-1.788zm9.854 16.571c.225.252.451.688.513.963.061.298.082 4.836.061 10.085l-.061 9.557-.472.528-.472.527h-24.37l-.534-.55-.533-.55v-9.902c0-9.672 0-9.924.43-10.52l.411-.596h12.319c11.969 0 12.318.023 12.708.458z" fill="#000"/>
    </g>
    <path d="M87.353 36.072c-2.3 1.169-3.429 4.47-2.382 7.013.431 1.078 1.458 2.27 2.3 2.636.554.275.595.367.595 1.605 0 1.673.103 1.994.821 2.406.431.252.719.275 1.19.092.76-.298 1.068-1.032 1.068-2.613 0-1.032.062-1.26.431-1.375.657-.252 1.807-1.49 2.238-2.43 1.212-2.658.267-5.913-2.155-7.288-1.047-.62-2.957-.642-4.106-.046zm3.14 3.46c1.273 1.33.288 3.508-1.498 3.233-.616-.07-1.335-1.1-1.335-1.88 0-1.513 1.828-2.384 2.834-1.352z" fill="#000"/>
    <defs>
        <filter id="c4mmnrprya" x="0" y=".656" width="113" height="44.544" filterUnits="userSpaceOnUse" color-interpolation-filters="sRGB">
            <feFlood flood-opacity="0" result="BackgroundImageFix"/>
            <feColorMatrix in="SourceAlpha" values="0 0 0 0 0 0 0 0 0 0 0 0 0 0 0 0 0 0 127 0" result="hardAlpha"/>
            <feOffset dy="4"/>
            <feGaussianBlur stdDeviation="2"/>
            <feComposite in2="hardAlpha" operator="out"/>
            <feColorMatrix values="0 0 0 0 0 0 0 0 0 0 0 0 0 0 0 0 0 0 0.25 0"/>
            <feBlend in2="BackgroundImageFix" result="effect1_dropShadow_129_366"/>
            <feBlend in="SourceGraphic" in2="effect1_dropShadow_129_366" result="shape"/>
        </filter>
        <filter id="5wc4mv4nhb" x="10.734" y="9.929" width="22.415" height="25.915" filterUnits="userSpaceOnUse" color-interpolation-filters="sRGB">
            <feFlood flood-opacity="0" result="BackgroundImageFix"/>
            <feColorMatrix in="SourceAlpha" values="0 0 0 0 0 0 0 0 0 0 0 0 0 0 0 0 0 0 127 0" result="hardAlpha"/>
            <feOffset dy="4"/>
            <feGaussianBlur stdDeviation="2"/>
            <feComposite in2="hardAlpha" operator="out"/>
            <feColorMatrix values="0 0 0 0 0 0 0 0 0 0 0 0 0 0 0 0 0 0 0.25 0"/>
            <feBlend in2="BackgroundImageFix" result="effect1_dropShadow_129_366"/>
            <feBlend in="SourceGraphic" in2="effect1_dropShadow_129_366" result="shape"/>
        </filter>
        <filter id="7kpj31n3uc" x="30.49" y="9.857" width="22.369" height="25.987" filterUnits="userSpaceOnUse" color-interpolation-filters="sRGB">
            <feFlood flood-opacity="0" result="BackgroundImageFix"/>
            <feColorMatrix in="SourceAlpha" values="0 0 0 0 0 0 0 0 0 0 0 0 0 0 0 0 0 0 127 0" result="hardAlpha"/>
            <feOffset dy="4"/>
            <feGaussianBlur stdDeviation="2"/>
            <feComposite in2="hardAlpha" operator="out"/>
            <feColorMatrix values="0 0 0 0 0 0 0 0 0 0 0 0 0 0 0 0 0 0 0.25 0"/>
            <feBlend in2="BackgroundImageFix" result="effect1_dropShadow_129_366"/>
            <feBlend in="SourceGraphic" in2="effect1_dropShadow_129_366" result="shape"/>
        </filter>
        <filter id="45557gw83d" x="50.201" y="9.834" width="22.369" height="26.009" filterUnits="userSpaceOnUse" color-interpolation-filters="sRGB">
            <feFlood flood-opacity="0" result="BackgroundImageFix"/>
            <feColorMatrix in="SourceAlpha" values="0 0 0 0 0 0 0 0 0 0 0 0 0 0 0 0 0 0 127 0" result="hardAlpha"/>
            <feOffset dy="4"/>
            <feGaussianBlur stdDeviation="2"/>
            <feComposite in2="hardAlpha" operator="out"/>
            <feColorMatrix values="0 0 0 0 0 0 0 0 0 0 0 0 0 0 0 0 0 0 0.25 0"/>
            <feBlend in2="BackgroundImageFix" result="effect1_dropShadow_129_366"/>
            <feBlend in="SourceGraphic" in2="effect1_dropShadow_129_366" result="shape"/>
        </filter>
        <filter id="kp8e2p4a7e" x="69.084" y="11.697" width="40.643" height="53.682" filterUnits="userSpaceOnUse" color-interpolation-filters="sRGB">
            <feFlood flood-opacity="0" result="BackgroundImageFix"/>
            <feColorMatrix in="SourceAlpha" values="0 0 0 0 0 0 0 0 0 0 0 0 0 0 0 0 0 0 127 0" result="hardAlpha"/>
            <feOffset dy="4"/>
            <feGaussianBlur stdDeviation="2"/>
            <feComposite in2="hardAlpha" operator="out"/>
            <feColorMatrix values="0 0 0 0 0 0 0 0 0 0 0 0 0 0 0 0 0 0 0.25 0"/>
            <feBlend in2="BackgroundImageFix" result="effect1_dropShadow_129_366"/>
            <feBlend in="SourceGraphic" in2="effect1_dropShadow_129_366" result="shape"/>
        </filter>
    </defs>
</svg>
